<?xml version="1.0" encoding="UTF-8"?> <!-- Generator: Adobe Illustrator 26.1.0, SVG Export Plug-In . SVG Version: 6.00 Build 0) --> <svg xmlns="http://www.w3.org/2000/svg" xmlns:xlink="http://www.w3.org/1999/xlink" version="1.1" id="Layer_1" x="0px" y="0px" viewBox="0 0 885.75 1378.9" style="enable-background:new 0 0 885.75 1378.9;" xml:space="preserve" stroke="currentColor" fill="currentColor"> <g> <path d="M7.79,291.96h422.46c0.08,0,0.14-0.06,0.15-0.13c0.13-5.19,0.3-10.34,0.52-15.3c0-0.03,0-0.07-0.04-0.11 c-0.04-0.04-0.08-0.04-0.1-0.04H7.79c-4.3,0-7.79,3.5-7.79,7.79S3.5,291.96,7.79,291.96z"></path> <path d="M724.48,291.96h153.48c4.3,0,7.79-3.5,7.79-7.79s-3.5-7.79-7.79-7.79H727.6c-0.07,0-0.13,0.04-0.14,0.11 c-0.95,5.1-2,10.24-3.12,15.27c-0.01,0.04-0.02,0.09,0.03,0.16C724.41,291.96,724.44,291.96,724.48,291.96z"></path> <path d="M7.79,499.4h298.42c0.03,0,0.06-0.01,0.09-0.04c6.02-5.15,12.27-10.29,18.57-15.29c0.04-0.03,0.06-0.05,0.07-0.05 c0-0.06-0.04-0.17-0.05-0.19c0,0-0.03-0.01-0.11-0.01H7.79c-4.3,0-7.79,3.5-7.79,7.79S3.5,499.4,7.79,499.4z"></path> <path d="M877.95,483.81H624.36c-0.05,0-0.09,0.03-0.11,0.05c-4.87,5.21-9.94,10.36-15.06,15.3c-0.03,0.03-0.04,0.04-0.05,0.05 c0,0.06,0.05,0.16,0.07,0.18c0,0,0.03,0.01,0.1,0.01h268.64c4.3,0,7.79-3.5,7.79-7.79S882.25,483.81,877.95,483.81z"></path> <path d="M877.95,691.25H641.77c-0.04,0-0.09,0-0.09,0c-0.04,0.04-0.09,0.15-0.09,0.16c0,0,0.01,0.03,0.06,0.07 c1.68,1.56,3.35,3.16,4.95,4.75c3.42,3.37,6.79,6.91,10.04,10.53c0.04,0.04,0.09,0.07,0.13,0.07h221.17c4.3,0,7.79-3.5,7.79-7.79 S882.25,691.25,877.95,691.25z"></path> <path d="M7.79,706.84h157.54c0.07,0,0.12-0.04,0.13-0.09c1.37-5.14,2.88-10.3,4.49-15.38c0,0-0.03-0.13-0.16-0.13H7.79 c-4.3,0-7.79,3.5-7.79,7.79S3.5,706.84,7.79,706.84z"></path> <path d="M877.95,898.69H716.05c-0.07,0-0.14,0.06-0.14,0.13c-0.48,5.14-1.09,10.27-1.81,15.26c0,0.04-0.01,0.09,0.04,0.16 c0.04,0.04,0.06,0.04,0.1,0.04h163.72c4.3,0,7.79-3.5,7.79-7.79S882.25,898.69,877.95,898.69z"></path> <path d="M7.79,914.28h169.44c0.05,0,0.08,0,0.12-0.06c0.04-0.06,0.04-0.09,0.02-0.13l-0.05-0.13c-1.87-4.85-3.68-9.96-5.39-15.18 c-0.01-0.04-0.06-0.08-0.13-0.08H7.79c-4.3,0-7.79,3.5-7.79,7.79S3.5,914.28,7.79,914.28z"></path> <path d="M430.85,1121.57v-15.29c0-0.08-0.07-0.15-0.15-0.15H7.79c-4.3,0-7.79,3.5-7.79,7.79s3.5,7.79,7.79,7.79h422.9 C430.78,1121.72,430.85,1121.66,430.85,1121.57z"></path> <path d="M877.95,1106.13H536.39c-0.03,0-0.06,0-0.1,0.04s-0.04,0.08-0.04,0.11l0.05,15.29c0,0.08,0.07,0.15,0.15,0.15h341.51 c4.3,0,7.79-3.5,7.79-7.79S882.25,1106.13,877.95,1106.13z"></path> <path d="M678.54,867.23c0-123.93-101.86-200.44-178.85-200.44c-1.22,0-2.45,0.02-3.67,0.05l-0.42-129.16 c201.76-114.73,201.25-308.12,201.25-359.55c0-95.29-32.39-145.52-61.38-178.12C448.83,69.73,469.64,290.78,469.64,370.59v60.56 c-7.32,4.24-14.54,8.31-21.59,12.2c-119.7,66.19-259.12,181.67-259.12,345.02c0,164.3,114.06,281.65,269.92,281.65 c3.64,0,7.23-0.06,10.8-0.15v84.65l0.47,63.92c0,71.98-52.44,135.02-117.13,135.02c-42.05,0-67.12-16.31-81.42-42.31 c1.55,0.09,3.11,0.16,4.69,0.16c42,0,76.05-34.05,76.05-76.05s-34.05-76.05-76.05-76.05s-76.05,34.05-76.05,76.05 c0,3.8,0.29,7.53,0.83,11.18c-0.08,1.3-0.13,2.58-0.13,3.84c0,44.12,40.62,128.62,152.34,128.62 c91.07,0,144.58-71.35,144.58-160.54l-0.49-150.25C610.55,1056.44,678.54,990.87,678.54,867.23z M469.64,669.7 c-74.62,14.37-141.76,80.76-141.76,169.83c0,84.1,60.24,123.56,78.42,132.42c2.91,1.42,6.42,0.53,8.33-2.09l0.34-0.47 c2.15-2.96,1.52-7.1-1.41-9.29c-46.18-34.53-45.31-82.23-45.31-98.51c0-41.49,41-81.67,101.39-84.77v267.27 c-2.16,0.06-4.34,0.1-6.57,0.1c-137.07,0-228.14-101.64-228.14-227.67c0-88.75,50.85-165.8,234.71-264.81V669.7z M495.05,370.41 c0-153.8,105.56-264.04,156.48-264.04c9.86,0,18.6,36.54,18.6,76.04c0,104.86-89.63,180.61-174.94,233.45L495.05,370.41z M496.38,777.66c77.54,8.5,109.4,68.62,109.4,124.3c0,35.48-13.82,122.51-108.54,139.37L496.38,777.66z"></path> </g> </svg> 